<svg id="Layer_1" data-name="Layer 1" xmlns="http://www.w3.org/2000/svg" viewBox="0 0 930.16 240.22"><defs><style>.cls-1{fill:#fff;}.cls-2{fill:#231f20;}</style></defs><path class="cls-1" d="M628.46,196.66a13.78,13.78,0,0,1,3.63,6.26h-5.6a7,7,0,0,0-1.76-2.53,8.71,8.71,0,0,0-12.13,0,8.16,8.16,0,0,0-2.5,5.84,8.33,8.33,0,0,0,2.5,6,8.81,8.81,0,0,0,12.13,0,8,8,0,0,0,1.76-2.46h5.6a14,14,0,0,1-3.63,6.22,14.23,14.23,0,0,1-9.81,3.94,13.69,13.69,0,0,1-13.82-13.68,13.42,13.42,0,0,1,4.08-9.57,13.89,13.89,0,0,1,9.74-4A14.26,14.26,0,0,1,628.46,196.66Z"/><path class="cls-1" d="M660,193.18c8.27,0,9.89,10.2,4.85,14.21a10.45,10.45,0,0,1,1.9,6v6.19h-5.24V213.4a4.57,4.57,0,0,0-4.36-4.39h-6.79a2.65,2.65,0,0,0-2.63,2.63v8H642.5c0-2.63-.07-5.27-.07-8,.24-4.81,2.81-7.91,7.94-7.91,3.17,0,6.41-.07,9.64-.07s3.34-5.24,0-5.24c-5.87,0-11.61,0-17.51,0v-5.21Z"/><path class="cls-1" d="M703,198.39H686c-3.34,0-3.48,5.34,0,5.34H703V209H686c-3.41,0-3.38,5.31,0,5.31H703v5.24H686c-7,0-9.78-7.6-5.91-13.3-4.22-4.89-.81-13.08,5.91-13.08H703Z"/><path class="cls-1" d="M712.7,219.59l9.78-20.71a9.62,9.62,0,0,1,17.58,0l9.81,20.71H744l-8.65-18.46c-2-3.66-6.23-3.66-8.13,0l-8.75,18.46Z"/><path class="cls-1" d="M767.6,198.39v21.2h-5.2v-21.2H751.81v-5.21h26.41v5.21Z"/><path class="cls-1" d="M813.18,206.23a13.81,13.81,0,0,1-27.61,0c0-7.67,6.62-13.54,13.83-13.54A13.87,13.87,0,0,1,813.18,206.23Zm-22.4,0a8.6,8.6,0,0,0,17.2,0c0-4.82-4.33-8.3-8.58-8.3A8.57,8.57,0,0,0,790.78,206.23Z"/><path class="cls-1" d="M840.76,193.18c8.26,0,9.88,10.2,4.85,14.21a10.45,10.45,0,0,1,1.9,6v6.19h-5.24V213.4a4.57,4.57,0,0,0-4.36-4.39h-6.79a2.65,2.65,0,0,0-2.64,2.63v8h-5.24c0-2.63-.07-5.27-.07-8,.25-4.81,2.82-7.91,8-7.91,3.17,0,6.4-.07,9.64-.07s3.34-5.24,0-5.24c-5.88,0-11.61,0-17.52,0v-5.21Z"/><path class="cls-1" d="M882.29,198.39c-5.83,0-10.16,0-16,0-3.41,0-3.41,5.24,0,5.24H876c10.31,0,10.31,15.9,0,15.9-5.83,0-9.95,0-15.86,0v-5.24c5.91,0,10,0,15.86,0,3.45,0,3.45-5.31,0-5.31h-9.7c-10.31,0-10.31-15.83,0-15.83h16Z"/><path class="cls-2" d="M112.66,69.08v70.48a13.75,13.75,0,0,1-13.74,13.75h0a13.75,13.75,0,0,1-13.74-13.75V69.08A13.74,13.74,0,0,1,98.92,55.34h0A13.74,13.74,0,0,1,112.66,69.08Z"/><path class="cls-2" d="M73.89,102.89v2.87A13.75,13.75,0,0,1,60.14,119.5h0A13.74,13.74,0,0,1,46.4,105.76v-2.87A13.75,13.75,0,0,1,60.14,89.14h0A13.76,13.76,0,0,1,73.89,102.89Z"/><path class="cls-2" d="M226.05,173.59h0a22.9,22.9,0,0,1-20.88-13.49L172.83,88.34c-7.69-17.93-20.49-29.09-19.58.18l.16,71.43a13.62,13.62,0,0,1-13.62,13.64h0A13.6,13.6,0,0,1,126.18,160c0-30,0-80.43.36-80.43C125.26,50.83,138.25,34,155.45,35.1c15.55,1.1,28.9,13.54,41.89,41.35l28.73,63.85,28.54-63.85c13.17-27.81,26-40.25,41.89-41.35,17-1.1,30.37,15.73,29.27,44.46,0,0,.14,50.41.17,80.4a13.61,13.61,0,0,1-13.62,13.63h0A13.62,13.62,0,0,1,298.7,160V88.52c1.09-29.27-11.71-18.11-19.58-.18L247,160.06A22.93,22.93,0,0,1,226.05,173.59Z"/><path class="cls-2" d="M431,35.05c54,0,54,83,0,83H380.24a14,14,0,0,0-13.65,13.83V160A13.56,13.56,0,0,1,353,173.59h0A13.56,13.56,0,0,1,339.47,160V131.9c.92-25.27,14-41.51,40.77-41.51C397.39,90.39,414,90,431,90c18.08,0,18.08-27.49,0-27.49-26.05,0-52-.14-77.86-.18a13.65,13.65,0,0,1-13.64-13.65h0a13.66,13.66,0,0,1,13.66-13.66Z"/><path class="cls-2" d="M459.1,173.59a13.67,13.67,0,0,1-12.37-19.52l42-89.08C508.32,25.35,561.23,24.8,581,65l42.19,89.07a13.68,13.68,0,0,1-12.36,19.53h-.48a13.69,13.69,0,0,1-12.39-7.87L556.26,76.79c-10.51-19.17-32.64-19.17-42.6,0l-42.2,89a13.68,13.68,0,0,1-12.36,7.82Z"/><path class="cls-2" d="M735.78,55.28a71.75,71.75,0,0,1,9.13,11.11,13.36,13.36,0,0,1-11.14,20.75h0A13.6,13.6,0,0,1,722.5,81a39.77,39.77,0,0,0-5.69-6.7,44.32,44.32,0,0,0-61.76,0A41.58,41.58,0,0,0,642.35,104a42.27,42.27,0,0,0,12.7,30.43c7.7,8.06,18.62,12.35,30.79,12.35,12.35,0,23.27-4.29,31-12.35a42.27,42.27,0,0,0,5.71-6.73,13.28,13.28,0,0,1,11-5.8h.1a13.36,13.36,0,0,1,11.16,20.74,73,73,0,0,1-9,11c-13.24,12.35-30.43,20-49.94,20a70.69,70.69,0,0,1-49.58-20C623.55,140.66,615.5,123.47,615.5,104a68.32,68.32,0,0,1,20.76-48.68,70.85,70.85,0,0,1,49.58-20.23C705.35,35.05,722.54,42.93,735.78,55.28Z"/><path class="cls-2" d="M828.05,76v83.94a13.65,13.65,0,0,1-13.65,13.65h0a13.65,13.65,0,0,1-13.65-13.65V76A13.65,13.65,0,0,0,787.1,62.35H758.87A13.65,13.65,0,0,1,745.22,48.7h0a13.65,13.65,0,0,1,13.65-13.65H870.11A13.65,13.65,0,0,1,883.76,48.7h0a13.65,13.65,0,0,1-13.65,13.65H841.7A13.65,13.65,0,0,0,828.05,76Z"/></svg>