<svg id="Layer_1" data-name="Layer 1" xmlns="http://www.w3.org/2000/svg" viewBox="0 0 612.47 240.22"><defs><style>.cls-1{fill:#00adee;}</style></defs><path class="cls-1" d="M130.12,64.92V175.3a21.52,21.52,0,0,1-21.52,21.53h0A21.52,21.52,0,0,1,87.08,175.3V64.92A21.52,21.52,0,0,1,108.6,43.39h0A21.52,21.52,0,0,1,130.12,64.92Z"/><path class="cls-1" d="M69.4,117.87v4.49a21.53,21.53,0,0,1-21.53,21.52h0a21.52,21.52,0,0,1-21.52-21.52v-4.49A21.52,21.52,0,0,1,47.87,96.34h0A21.53,21.53,0,0,1,69.4,117.87Z"/><path class="cls-1" d="M482.35,175.3V64.92a21.52,21.52,0,0,1,21.52-21.53h0a21.52,21.52,0,0,1,21.52,21.53V175.3a21.52,21.52,0,0,1-21.52,21.53h0A21.52,21.52,0,0,1,482.35,175.3Z"/><path class="cls-1" d="M543.08,122.36v-4.49A21.52,21.52,0,0,1,564.6,96.34h0a21.52,21.52,0,0,1,21.52,21.53v4.49a21.52,21.52,0,0,1-21.52,21.52h0A21.52,21.52,0,0,1,543.08,122.36Z"/><path class="cls-1" d="M307.7,228.6h0A35.89,35.89,0,0,1,275,207.46L224.35,95.08c-12-28.08-32.09-45.55-30.66.29l.24,111.86a21.32,21.32,0,0,1-21.32,21.37h0a21.31,21.31,0,0,1-21.31-21.31c0-47,.08-126,.57-126-2-45,18.34-71.34,45.27-69.62,24.35,1.71,45.27,21.2,65.61,64.75l45,100,44.7-100c20.63-43.55,40.68-63,65.61-64.75,26.65-1.72,47.56,24.63,45.84,69.62,0,0,.21,79,.27,125.91a21.32,21.32,0,0,1-21.33,21.36h0a21.34,21.34,0,0,1-21.34-21.34V95.37c1.72-45.84-18.34-28.37-30.66-.29L340.44,207.4A35.89,35.89,0,0,1,307.7,228.6Z"/></svg>